# AST/ASF file generated using VICON BodyLanguage
# -----------------------------------------------
:version 1.10
:name VICON
:units
  mass 1.0
  length 0.45
  angle deg
:documentation
   .ast/.asf automatically generated from VICON data using
   VICON BodyBuilder and BodyLanguage model FoxedUp or BRILLIANT.MOD
:root
   order TX TY TZ RX RY RZ
   axis XYZ
   position 0 0 0  
   orientation 0 0 0 
:bonedata
  begin
     id 1 
     name lhipjoint
     direction 0.621036 -0.695554 0.361275 
     length 2.46325 
     axis 0 0 0  XYZ
  end
  begin
     id 2 
     name lfemur
     direction 0.34202 -0.939693 0  
     length 6.54784  
     axis 0 0 20  XYZ
    dof rx ry rz
    limits (-160.0 20.0)
           (-70.0 70.0)
           (-60.0 70.0)
  end
  begin
     id 3 
     name ltibia
     direction 0.34202 -0.939693 0   
     length 7.84737   
     axis 0 0 20   XYZ
    dof rx
    limits (-10.0 170.0)
  end
  begin
     id 4 
     name lfoot
     direction 0.0790693 -0.217241 0.97291   
     length 2.59747   
     axis -90 7.62852e-016 20   XYZ
    dof rx rz
    limits (-45.0 90.0)
           (-70.0 20.0)
  end
  begin
     id 5 
     name ltoes
     direction 1.53572e-011 -4.21898e-011 1   
     length 1.29919   
     axis -90 7.62852e-016 20   XYZ
    dof rx
    limits (-90.0 20.0)
  end
  begin
     id 6 
     name rhipjoint
     direction -0.602353 -0.708375 0.367935   
     length 2.41867  
     axis 0 0 0  XYZ 
  end
  begin
     id 7 
     name rfemur
     direction -0.34202 -0.939693 0   
     length 6.92065   
     axis 0 0 -20   XYZ
    dof rx ry rz
    limits (-160.0 20.0)
           (-70.0 70.0)
           (-70.0 60.0)
  end
  begin
     id 8 
     name rtibia
     direction -0.34202 -0.939693 0   
     length 7.88883   
     axis 0 0 -20   XYZ
    dof rx
    limits (-10.0 170.0)
 end
 begin
     id 9 
     name rfoot
     direction -0.0768692 -0.211196 0.974416   
     length 2.43714  
     axis -90 -7.62852e-016 -20   XYZ
    dof rx rz
    limits (-45.0 90.0)
           (-20.0 70.0)
  end
  begin
     id 10 
     name rtoes
     direction -1.53575e-011 -4.21933e-011 1   
     length 1.22113   
     axis -90 -7.62852e-016 -20   XYZ
    dof rx
    limits (-90.0 20.0)
  end
  begin
     id 11 
     name lowerback
     direction 0.0197937 0.98943 -0.143655   
     length 2.16931   
     axis 0 0 0   XYZ
    dof rx ry rz
    limits (-20.0 45.0)
           (-30.0 30.0)
           (-30.0 30.0)
  end
  begin
     id 12 
     name upperback
     direction -0.00183968 0.999975 0.00684288   
     length 2.17221   
     axis 0 0 0   XYZ
    dof rx ry rz
    limits (-20.0 45.0)
           (-30.0 30.0)
           (-30.0 30.0)
  end
  begin
     id 13 
     name thorax
     direction -0.00950244 0.997208 0.0740685   
     length 2.22549   
     axis 0 0 0   XYZ
    dof rx ry rz
    limits (-20.0 45.0)
           (-30.0 30.0)
           (-30.0 30.0)
  end
  begin
     id 14 
     name lowerneck
     direction 0.0218238 0.996215 0.0841425   
     length 1.77269   
     axis 0 0 0   XYZ
    dof rx ry rz
    limits (-20.0 45.0)
           (-30.0 30.0)
           (-30.0 30.0)
  end
  begin
     id 15 
     name upperneck
     direction -0.00430652 0.994214 -0.107332   
     length 1.76534   
     axis 0 0 0   XYZ
    dof rx ry rz
    limits (-20.0 45.0)
           (-30.0 30.0)
           (-30.0 30.0)
  end
  begin
     id 16
     name head
     direction -0.00328946 0.998959 -0.0454998  
     length 1.82634  
     axis 0 0 0   XYZ
    dof rx ry rz
    limits (-20.0 45.0)
           (-30.0 30.0)
           (-30.0 30.0)
  end
  begin
     id 17 
     name lclavicle
     direction 0.970962 0.239191 0.00450212  
     length 3.84872  
     axis 0 0 0   XYZ
    dof ry rz
    limits (-20.0 10.0)
           (0.0 20.0)
  end
  begin
     id 18 
     name lhumerus
     direction 1 -4.48966e-011 5.74696e-028   
     length 5.22771   
     axis 180 -30 -90   XYZ
    dof rx ry rz
    limits (-60.0 90.0)
           (-90.0 90.0)
           (-90.0 90.0)
  end
  begin
     id 19
     name lradius
     direction 1 -4.4896e-011 4.25109e-027   
     length 3.45251   
     axis 180 -30 -90   XYZ
    dof rx
    limits (-10.0 170.0)
  end
  begin
     id 20
     name lwrist
     direction 1 -4.48971e-011 1.15382e-027   
     length 1.72626   
     axis -5.52449e-016 90 90   XYZ
    dof ry
    limits (-180.0 0.0)
 end
  begin
     id 21 
     name lhand
     direction 1 -4.49034e-011 2.30765e-027   
     length 0.552119   
     axis -1.47248e-015 90 90   XYZ
    dof rx rz
    limits (-90.0 90.0)
           (-45.0 45.0)
  end
  begin
     id 22 
     name lfingers
     direction 1 -4.48951e-011 4.61529e-027   
     length 0.445133   
     axis -2.94495e-015 90 90   XYZ
    dof rx
    limits (0.0 90.0)
  end
  begin
     id 23
     name lthumb
     direction 0.707107 -6.34991e-011 0.707107   
     length 0.639124   
     axis -90 45 2.85299e-015   XYZ
    dof rx rz
    limits (-45.0 45.0)
           (-45.0 45.0)
  end
  begin
     id 24 
     name rclavicle
     direction -0.97424 0.222511 -0.0366699   
     length 3.73439  
     axis 0 0 0   XYZ 
    dof ry rz
    limits (-10.0 20.0)
           (-20.0 0.0)
  end
  begin
     id 25 
     name rhumerus
     direction -1 -4.48956e-011 -4.97258e-028  
     length 5.2398   
     axis 180 30 90   XYZ
    dof rx ry rz
    limits (-90.0 60.0)
           (-90.0 90.0)
           (-90.0 90.0)
  end
  begin
     id 26 
     name rradius
     direction -1 -4.4897e-011 -1.72611e-027   
     length 3.48042   
     axis 180 30 90   XYZ
    dof rx
    limits (-10.0 170.0)
  end
  begin
     id 27 
     name rwrist
     direction -1 -4.48976e-011 1.15382e-027   
     length 1.74021   
     axis -5.52449e-016 -90 -90   XYZ
    dof ry
    limits (-180.0 0.0)
  end
  begin
     id 28
     name rhand
     direction -1 -4.48963e-011 2.30765e-027   
     length 0.618713   
     axis -1.47248e-015 -90 -90   XYZ
    dof rx rz
    limits (-90.0 90.0)
           (-45.0 45.0)
  end
  begin
     id 29
     name rfingers
     direction -1 -4.4888e-011 4.61529e-027   
     length 0.498823   
     axis -2.94495e-015 -90 -90   XYZ
    dof rx
    limits (0.0 90.0)
  end
  begin
     id 30
     name rthumb
     direction -0.707107 -6.34968e-011 0.707107   
     length 0.716213   
     axis -90 -45 -2.85299e-015   XYZ
    dof rx rz
    limits (-45.0 45.0)
           (-45.0 45.0)
  end
:hierarchy
  begin
    root lhipjoint rhipjoint lowerback
    lhipjoint lfemur
    lfemur ltibia
    ltibia lfoot
    lfoot ltoes
    rhipjoint rfemur
    rfemur rtibia
    rtibia rfoot
    rfoot rtoes
    lowerback upperback
    upperback thorax
    thorax lowerneck lclavicle rclavicle
    lowerneck upperneck
    upperneck head
    lclavicle lhumerus
    lhumerus lradius
    lradius lwrist
    lwrist lhand lthumb
    lhand lfingers
    rclavicle rhumerus
    rhumerus rradius
    rradius rwrist
    rwrist rhand rthumb
    rhand rfingers
  end

#!OML:ASF G:\JayActor3\Patient Classification 1\Patient 1\Session 5\male.ASF
:FULLY-SPECIFIED
:DEGREES
211
root 45.9504 14.6386 -4.2937 -126.899 87.754 -143.571
lowerback 38.2046 -2.171 1.51265
upperback 10.2788 -0.919673 -1.25914
thorax -7.37094 0.134598 -1.83902
lowerneck 1.51647 -0.866606 1.76813
upperneck -28.8698 0.762465 2.8505
head -9.32036 0.402163 0.534044
rclavicle 3.18055e-015 1.03368e-014
rhumerus -25.2793 1.16711 -89.4926
rradius 47.4634
rwrist -9.36737
rhand -20.8306 -11.2441
rfingers 7.12502
rthumb 5.53794 -41.1518
lclavicle 3.18055e-015 1.03368e-014
lhumerus -18.9968 3.44869 81.1774
lradius 41.469
lwrist 25.4139
lhand -19.9981 11.4244
lfingers 7.12502
lthumb 6.34163 41.3094
rfemur -57.6139 -1.27983 22.0795
rtibia 71.1345
rfoot -26.5234 -10.2053
rtoes -2.43401
lfemur -63.462 10.1737 -19.0686
ltibia 77.0602
lfoot -6.02577 -8.9163
ltoes -29.3541
212
root 45.9464 14.6387 -4.30443 -128.602 87.7491 -145.354
lowerback 38.3677 -2.20506 1.5
upperback 10.2721 -0.957211 -1.25961
thorax -7.43339 0.119085 -1.81809
lowerneck 1.54062 -0.861557 1.787
upperneck -28.9481 0.779101 2.85081
head -9.3535 0.408946 0.529479
rclavicle -1.31198e-014 -1.78906e-015
rhumerus -25.3035 1.20034 -89.4692
rradius 47.5484
rwrist -9.42326
rhand -20.8291 -11.2541
rfingers 7.12502
rthumb 5.53935 -41.1617
lclavicle -1.31198e-014 -1.78906e-015
lhumerus -18.9353 3.373 81.2152
lradius 41.5413
lwrist 25.4523
lhand -20.0168 11.3997
lfingers 7.12502
lthumb 6.32363 41.2853
rfemur -57.7867 -1.28736 21.9287
rtibia 71.2545
rfoot -26.3597 -10.1407
rtoes -2.8176
lfemur -63.6723 10.0794 -19.0902
ltibia 77.1292
lfoot -5.61575 -9.25322
ltoes -29.2725
213
root 45.9426 14.6399 -4.31594 -130.113 87.7431 -146.936
lowerback 38.5327 -2.23935 1.49167
upperback 10.263 -0.993701 -1.25997
thorax -7.49885 0.103972 -1.7996
lowerneck 1.56586 -0.854446 1.80926
upperneck -29.019 0.798093 2.84981
head -9.38426 0.416404 0.523677
rclavicle -8.74653e-015 7.95139e-016
rhumerus -25.333 1.2309 -89.4399
rradius 47.6391
rwrist -9.46356
rhand -20.8165 -11.2506
rfingers 7.12502
rthumb 5.55156 -41.1579
lclavicle -8.74653e-015 7.95139e-016
lhumerus -18.8755 3.29504 81.2494
lradius 41.6144
lwrist 25.4843
lhand -20.0266 11.3656
lfingers 7.12502
lthumb 6.31415 41.2515
rfemur -57.9535 -1.29527 21.7756
rtibia 71.3829
rfoot -26.1659 -10.0626
rtoes -3.25605
lfemur -63.8654 9.97598 -19.0957
ltibia 77.1923
lfoot -5.18504 -9.60695
ltoes -29.1849
214
root 45.9391 14.6414 -4.32833 -131.293 87.7355 -148.176
lowerback 38.6992 -2.27323 1.49082
upperback 10.2513 -1.02726 -1.25965
thorax -7.56751 0.0900564 -1.78531
lowerneck 1.59482 -0.844923 1.8348
upperneck -29.0854 0.81973 2.84574
head -9.41412 0.424846 0.516016
rclavicle 5.1684e-015 2.5842e-015
rhumerus -25.3691 1.25677 -89.4079
rradius 47.7382
rwrist -9.48828
rhand -20.7977 -11.2376
rfingers 7.12502
rthumb 5.56968 -41.1445
lclavicle 5.1684e-015 2.5842e-015
lhumerus -18.8199 3.21363 81.2801
lradius 41.692
lwrist 25.5153
lhand -20.0241 11.3353
lfingers 7.12502
lthumb 6.31653 41.2212
rfemur -58.1168 -1.30653 21.6289
rtibia 71.515
rfoot -25.9374 -9.97276
rtoes -3.75081
lfemur -64.0458 9.87178 -19.0811
ltibia 77.2493
lfoot -4.72763 -9.9745
ltoes -29.0779
215
root 45.9357 14.6435 -4.3416 -132.288 87.7279 -149.225
lowerback 38.862 -2.30678 1.49327
upperback 10.2377 -1.05957 -1.2582
thorax -7.63683 0.0765336 -1.77193
lowerneck 1.6203 -0.834029 1.86103
upperneck -29.1416 0.842321 2.84106
head -9.43967 0.433579 0.507935
rclavicle 1.51076e-014 9.93923e-015
rhumerus -25.4098 1.28084 -89.371
rradius 47.8431
rwrist -9.50656
rhand -20.7735 -11.2134
rfingers 7.12502
rthumb 5.59306 -41.1196
lclavicle 1.51076e-014 9.93923e-015
lhumerus -18.7662 3.13046 81.3092
lradius 41.771
lwrist 25.5474
lhand -20.0056 11.3165
lfingers 7.12502
lthumb 6.33444 41.2017
rfemur -58.2798 -1.32902 21.4838
rtibia 71.6514
rfoot -25.6819 -9.85852
rtoes -4.25791
lfemur -64.2107 9.76255 -19.0503
ltibia 77.2954
lfoot -4.25454 -10.3506
ltoes -28.9764
216
root 45.9325 14.6462 -4.35565 -133.17 87.7188 -150.155
lowerback 39.0184 -2.34089 1.49827
upperback 10.2238 -1.09185 -1.25572
thorax -7.70405 0.062922 -1.75871
lowerneck 1.63694 -0.821416 1.89931
upperneck -29.1826 0.864642 2.82644
head -9.45803 0.441788 0.494312
rclavicle 1.23246e-014 3.97569e-016
rhumerus -25.4526 1.29295 -89.335
rradius 47.9549
rwrist -9.51363
rhand -20.7503 -11.1894
rfingers 7.12502
rthumb 5.61545 -41.095
lclavicle 1.23246e-014 3.97569e-016
lhumerus -18.7122 3.0431 81.3358
lradius 41.8503
lwrist 25.5845
lhand -19.9777 11.3096
lfingers 7.12502
lthumb 6.36131 41.1941
rfemur -58.437 -1.36812 21.3414
rtibia 71.7874
rfoot -25.4138 -9.70768
rtoes -4.73942
lfemur -64.358 9.64438 -19.0021
ltibia 77.3256
lfoot -3.77639 -10.7398
ltoes -28.8917
217
root 45.9296 14.6496 -4.37039 -133.953 87.7095 -150.983
lowerback 39.1619 -2.37379 1.50139
upperback 10.2103 -1.12365 -1.24952
thorax -7.76646 0.0492786 -1.74073
lowerneck 1.64419 -0.808591 1.94165
upperneck -29.2084 0.884618 2.80615
head -9.46906 0.4489 0.478211
rclavicle 1.39149e-014 2.78299e-015
rhumerus -25.4997 1.29924 -89.2942
rradius 48.076
rwrist -9.51839
rhand -20.728 -11.1769
rfingers 7.12502
rthumb 5.637 -41.082
lclavicle 1.39149e-014 2.78299e-015
lhumerus -18.6583 2.95417 81.3644
lradius 41.9279
lwrist 25.6292
lhand -19.9576 11.3109
lfingers 7.12502
lthumb 6.38076 41.1947
rfemur -58.5884 -1.42468 21.2015
rtibia 71.9205
rfoot -25.1329 -9.52362
rtoes -5.19099
lfemur -64.4835 9.51619 -18.9339
ltibia 77.3344
lfoot -3.29834 -11.1468
ltoes -28.8197
218
root 45.927 14.6537 -4.38578 -134.603 87.6976 -151.674
lowerback 39.2895 -2.40589 1.50474
upperback 10.1999 -1.15429 -1.23856
thorax -7.81992 0.0360439 -1.71823
lowerneck 1.6392 -0.794621 1.98814
upperneck -29.218 0.903255 2.77904
head -9.47185 0.455593 0.459132
rclavicle 1.55052e-014 -7.95139e-015
rhumerus -25.5446 1.30181 -89.2478
rradius 48.2011
rwrist -9.52637
rhand -20.7149 -11.1798
rfingers 7.12502
rthumb 5.64957 -41.0845
lclavicle 1.55052e-014 -7.95139e-015
lhumerus -18.6009 2.86089 81.3955
lradius 42.0008
lwrist 25.6802
lhand -19.9526 11.3171
lfingers 7.12502
lthumb 6.38555 41.2009
rfemur -58.7302 -1.50013 21.068
rtibia 72.0505
rfoot -24.8472 -9.30551
rtoes -5.60505
lfemur -64.584 9.37955 -18.8416
ltibia 77.3229
lfoot -2.82935 -11.5795
ltoes -28.7679
219
root 45.9246 14.6583 -4.40179 -135.124 87.6857 -152.227
lowerback 39.4078 -2.43694 1.50476
upperback 10.1926 -1.18459 -1.22409
thorax -7.86648 0.0229571 -1.69036
lowerneck 1.62244 -0.779041 2.04203
upperneck -29.2124 0.921576 2.74481
head -9.46683 0.462036 0.436329
rclavicle 1.70955e-014 -9.93923e-016
rhumerus -25.5865 1.29888 -89.1988
rradius 48.3293
rwrist -9.53625
rhand -20.7093 -11.2048
rfingers 7.12502
rthumb 5.65504 -41.1093
lclavicle 1.70955e-014 -9.93923e-016
lhumerus -18.5418 2.76461 81.4267
lradius 42.0715
lwrist 25.7367
lhand -19.9682 11.3332
lfingers 7.12502
lthumb 6.37054 41.2174
rfemur -58.8569 -1.59347 20.9411
rtibia 72.1732
rfoot -24.5501 -9.06023
rtoes -5.99781
lfemur -64.6532 9.23866 -18.7279
ltibia 77.2871
lfoot -2.37334 -12.0315
ltoes -28.7642
220
root 45.9227 14.6612 -4.41862 -135.434 87.6741 -152.558
lowerback 39.5166 -2.46645 1.50452
upperback 10.1884 -1.21274 -1.20489
thorax -7.9063 0.0107959 -1.65816
lowerneck 1.60495 -0.760944 2.09637
upperneck -29.2002 0.941937 2.70707
head -9.45925 0.469601 0.412085
rclavicle -5.96354e-015 -3.18055e-015
rhumerus -25.627 1.29056 -89.1448
rradius 48.458
rwrist -9.55418
rhand -20.7168 -11.2343
rfingers 7.12502
rthumb 5.6478 -41.139
lclavicle -5.96354e-015 -3.18055e-015
lhumerus -18.4833 2.66327 81.4606
lradius 42.1383
lwrist 25.7956
lhand -19.9963 11.3613
lfingers 7.12502
lthumb 6.34338 41.2463
rfemur -58.9781 -1.70466 20.8239
rtibia 72.3014
rfoot -24.2361 -8.79152
rtoes -6.39176
lfemur -64.7025 9.09902 -18.5937
ltibia 77.2435
lfoot -1.93581 -12.4893
ltoes -28.8329
221
root 45.9212 14.6671 -4.43615 -135.507 87.6747 -152.643
lowerback 39.6106 -2.48812 1.4958
upperback 10.1888 -1.23475 -1.18378
thorax -7.93573 0.00142578 -1.62197
lowerneck 1.58128 -0.742158 2.15436
upperneck -29.1791 0.961312 2.66397
head -9.44724 0.476809 0.385457
rclavicle 3.81667e-014 2.36554e-014
rhumerus -25.6646 1.27148 -89.0856
rradius 48.5859
rwrist -9.5766
rhand -20.7296 -11.2593
rfingers 7.12502
rthumb 5.63539 -41.1643
lclavicle 3.81667e-014 2.36554e-014
lhumerus -18.4232 2.55271 81.4969
lradius 42.1996
lwrist 25.8579
lhand -20.0331 11.3904
lfingers 7.12502
lthumb 6.30787 41.2765
rfemur -59.0787 -1.82479 20.7103
rtibia 72.4165
rfoot -23.893 -8.50673
rtoes -6.81535
lfemur -64.7045 8.97296 -18.4532
ltibia 77.1648
lfoot -1.52509 -12.9434
ltoes -29.0033
